<svg xmlns="http://www.w3.org/2000/svg" viewBox="0 0 128 128" role="img" aria-label="StoryVerse AI">
  <defs>
    <linearGradient id="bg" x1="18" y1="12" x2="112" y2="118" gradientUnits="userSpaceOnUse">
      <stop stop-color="#22d3ee"/>
      <stop offset="0.48" stop-color="#8b5cf6"/>
      <stop offset="1" stop-color="#ec4899"/>
    </linearGradient>
    <linearGradient id="page" x1="35" y1="31" x2="92" y2="98" gradientUnits="userSpaceOnUse">
      <stop stop-color="#ffffff"/>
      <stop offset="1" stop-color="#e0f2fe"/>
    </linearGradient>
  </defs>
  <rect width="128" height="128" rx="30" fill="#020617"/>
  <rect x="10" y="10" width="108" height="108" rx="25" fill="url(#bg)"/>
  <path d="M34 35c0-5 4-9 9-9h36c9 0 16 7 16 16v50c0 5-4 9-9 9H43c-5 0-9-4-9-9V35Z" fill="url(#page)" opacity=".98"/>
  <path d="M49 45h28M49 58h31M49 71h22" stroke="#0f172a" stroke-width="6" stroke-linecap="round" opacity=".72"/>
  <path d="M86 26l4 11 11 4-11 4-4 11-4-11-11-4 11-4 4-11Z" fill="#f8fafc"/>
  <path d="M40 88c13-6 34-6 48 0" stroke="#8b5cf6" stroke-width="7" stroke-linecap="round"/>
</svg>
